<?xml version="1.0" standalone="no"?>
<!DOCTYPE svg PUBLIC "-//W3C//DTD SVG 20010904//EN"
 "http://www.w3.org/TR/2001/REC-SVG-20010904/DTD/svg10.dtd">
<svg version="1.0" xmlns="http://www.w3.org/2000/svg"
 width="1327.000000pt" height="456.000000pt" viewBox="0 0 1327.000000 456.000000"
 preserveAspectRatio="xMidYMid meet">

<g transform="translate(0.000000,456.000000) scale(0.100000,-0.100000)"
fill="#000000" stroke="none">
<path d="M10710 3260 l0 -70 -155 0 -155 0 0 55 0 56 -77 -3 -78 -3 -3 -1633
-2 -1632 -50 0 -50 0 15 24 c15 23 14 28 -24 105 -38 74 -41 87 -41 161 0 47
4 80 10 80 13 0 13 84 0 130 -5 20 -22 56 -38 80 -26 42 -27 47 -13 72 31 54
-34 114 -79 73 -25 -22 -27 -87 -4 -109 13 -14 14 -24 5 -67 -6 -27 -11 -80
-11 -117 0 -37 -9 -101 -20 -142 -13 -49 -20 -108 -20 -170 0 -61 -4 -100 -12
-108 -8 -8 -48 -12 -115 -12 l-103 0 0 170 0 170 35 70 c19 38 35 74 35 80 0
24 -22 6 -44 -37 l-25 -48 -1 108 c0 82 -3 108 -12 105 -10 -4 -14 -77 -16
-311 l-2 -307 -300 0 -300 0 0 470 c0 411 -2 470 -15 470 -13 0 -15 -49 -15
-385 l0 -385 -642 2 -643 3 -3 300 c-2 165 0 342 3 393 l7 92 704 0 704 0 0
90 0 90 -52 0 -53 0 0 262 c0 169 -4 263 -10 263 -6 0 -10 -94 -10 -263 l0
-262 -645 2 -645 3 -3 633 c-1 410 -6 632 -12 632 -7 0 -10 -386 -10 -1120 l0
-1120 -140 0 -140 0 0 220 c0 189 2 220 15 220 11 0 15 12 15 45 l0 45 -200 0
-200 0 0 -45 c0 -33 4 -45 15 -45 13 0 15 -31 15 -220 l0 -220 -150 0 -150 0
0 395 c0 257 -4 395 -10 395 -10 0 -18 -679 -11 -877 l3 -83 -171 0 -171 0 0
30 0 30 99 0 c91 0 127 9 101 25 -5 3 -10 25 -10 48 0 98 -69 157 -182 157
-39 0 -68 4 -68 10 0 6 4 10 9 10 16 0 23 40 10 56 -19 23 -63 14 -67 -15 -2
-13 1 -28 7 -34 21 -21 10 -27 -51 -27 -109 0 -171 -51 -184 -151 -4 -32 -11
-49 -20 -49 -8 0 -14 -7 -14 -15 0 -12 22 -15 118 -17 l117 -3 3 -27 3 -28
-415 0 -416 0 0 152 0 152 31 32 c17 17 26 34 21 38 -5 3 -15 -1 -22 -9 -22
-27 -30 -16 -30 45 0 47 -3 60 -15 60 -8 0 -15 -9 -15 -20 0 -13 -5 -18 -15
-14 -20 8 -20 -20 0 -36 12 -10 15 -46 15 -206 l0 -194 -34 0 c-28 0 -35 4
-38 23 -2 17 -11 23 -35 25 -33 3 -33 3 -33 59 0 46 -3 56 -20 60 -19 5 -20
16 -22 404 -2 258 -7 399 -13 399 -6 0 -11 -142 -13 -400 l-2 -399 -73 -3
c-104 -4 -90 -22 21 -26 l92 -3 0 -44 0 -45 -104 0 -105 0 -3 27 c-2 20 -9 29
-25 31 -15 2 -23 11 -25 30 -3 26 -6 27 -70 30 l-68 3 0 199 0 200 -165 0
-165 0 -2 -257 -3 -258 -133 -3 -132 -3 0 45 0 45 117 3 c82 2 118 7 121 16 3
9 -25 12 -117 12 l-121 0 0 405 c0 263 -3 405 -10 405 -6 0 -10 -143 -11 -407
-1 -225 -2 -433 -3 -463 l-1 -55 -767 -3 -768 -2 0 44 c0 30 5 46 15 50 13 5
15 61 15 422 0 328 -3 415 -12 412 -10 -4 -14 -95 -16 -403 -2 -341 -4 -401
-17 -408 -10 -5 -15 -25 -15 -62 l0 -55 -35 0 c-31 0 -35 -3 -35 -25 l0 -25
-472 0 c-464 0 -471 0 -454 19 10 11 20 37 23 59 4 33 1 44 -23 71 -20 21 -39
32 -61 34 -29 2 -34 7 -48 46 -8 25 -15 54 -15 67 0 15 -8 23 -27 28 -16 3
-41 17 -57 30 -24 20 -27 28 -21 54 3 17 15 34 25 37 26 8 45 61 34 93 -7 21
-17 28 -44 30 -39 4 -60 -16 -60 -58 0 -16 -12 -37 -31 -56 -17 -16 -41 -47
-54 -69 -25 -43 -42 -105 -28 -105 4 0 16 -11 25 -25 14 -19 16 -29 8 -50 -7
-18 -15 -25 -26 -21 -21 8 -80 -18 -93 -42 -17 -33 -13 -87 10 -115 l20 -27
-233 -2 c-149 -2 -232 -7 -231 -13 2 -7 2092 -11 6238 -13 5538 -2 6235 0
6235 13 0 13 -37 15 -270 15 l-270 0 0 129 c0 125 1 131 26 161 25 29 27 57 2
32 -22 -22 -28 -13 -28 38 0 28 -4 50 -10 50 -6 0 -10 -75 -10 -205 l0 -205
-60 0 -60 0 -2 1632 -3 1633 -75 0 -75 0 -3 -52 -3 -53 -760 0 -759 0 0 70 c0
40 -4 70 -10 70 -6 0 -10 -30 -10 -70 l0 -70 -75 0 -75 0 0 70 c0 40 -4 70
-10 70 -6 0 -10 -30 -10 -70z m-330 -1085 l0 -1095 -55 0 -55 0 0 1095 0 1095
55 0 54 0 1 -1095z m2170 0 l0 -1095 -50 0 -50 0 0 1095 0 1095 50 0 50 0 0
-1095z m-130 670 l0 -315 -365 0 -365 0 0 150 c0 93 -4 150 -10 150 -6 0 -10
-60 -10 -160 l0 -160 375 0 375 0 0 -714 0 -715 -37 -3 c-21 -2 -38 -7 -38
-13 0 -5 17 -11 38 -13 32 -3 37 -7 37 -28 l0 -24 -1010 0 -1010 0 0 24 c0 22
5 25 45 28 59 4 59 22 0 26 l-45 3 2 712 3 712 393 3 392 2 1 78 c0 42 1 113
2 156 1 55 -3 81 -11 84 -9 3 -12 -33 -12 -147 l0 -151 -385 0 -385 0 0 315 0
315 1010 0 1010 0 0 -315z m-3280 -1765 l0 -60 -695 0 -695 0 0 60 0 60 695 0
695 0 0 -60z m1240 -55 c0 -24 -3 -25 -55 -25 -52 0 -55 1 -55 25 0 24 3 25
55 25 52 0 55 -1 55 -25z m2170 0 c0 -23 -3 -25 -50 -25 -47 0 -50 2 -50 25 0
23 3 25 50 25 47 0 50 -2 50 -25z m-2170 -448 c0 -217 -3 -428 -6 -470 l-7
-77 -48 0 -49 0 0 470 0 470 55 0 55 0 0 -393z m2040 -22 l0 -415 -380 0 -380
0 0 290 0 290 -235 0 -235 0 0 -290 0 -290 -395 0 -395 0 0 415 1 415 1010 0
1009 0 0 -415z m130 -55 l0 -470 -50 0 -50 0 0 470 0 470 50 0 50 0 0 -470z
m-2522 238 c19 -19 14 -45 -10 -62 -32 -23 -48 -20 -48 9 0 16 6 25 15 25 8 0
15 5 15 10 0 6 -4 10 -10 10 -5 0 -10 5 -10 10 0 14 33 13 48 -2z m-2578 -48
c0 -18 -9 -19 -175 -22 l-175 -3 0 23 c0 22 0 22 175 22 167 0 175 -1 175 -20z
m4180 -275 l0 -275 -207 2 -208 3 -3 273 -2 272 210 0 210 0 0 -275z m-1552
116 c14 -39 16 -111 4 -111 -5 0 -8 21 -9 48 0 53 -18 106 -32 97 -6 -3 -4
-22 5 -47 13 -37 13 -48 -1 -96 -19 -65 -26 -65 -15 2 7 50 -5 126 -21 126
-12 0 -11 -22 0 -52 12 -31 3 -78 -15 -78 -24 0 -16 128 12 220 6 17 54 -56
72 -109z m-2663 -111 l0 -215 -142 -3 -143 -3 0 221 0 221 143 -3 142 -3 0
-215z m-5923 159 c17 -9 18 -13 7 -20 -12 -8 -12 -10 0 -18 10 -7 11 -13 2
-30 -15 -27 -26 -27 -45 1 -19 27 -20 50 -4 66 15 15 14 15 40 1z m3358 -189
l0 -190 -140 0 -140 0 0 190 0 190 140 0 140 0 0 -190z m-3406 52 c-15 -36
-15 -37 13 -60 28 -24 28 -24 3 -16 -54 15 -72 25 -67 37 3 6 8 20 12 30 11
27 -10 20 -23 -8 -17 -37 -15 -44 13 -57 43 -19 31 -38 -25 -38 -27 0 -50 2
-50 5 0 22 35 81 71 119 32 36 45 44 55 35 11 -9 11 -17 -2 -47z m8560 -68
c-4 -17 -2 -29 7 -35 22 -14 27 -11 34 21 8 37 22 46 30 21 9 -28 -18 -75 -63
-111 -36 -28 -39 -36 -52 -113 -7 -45 -16 -88 -19 -94 -10 -19 -1 187 9 222 5
17 14 49 20 73 7 25 17 42 26 42 11 0 13 -7 8 -26z m-3624 1 c0 -8 -4 -15 -9
-15 -13 0 -22 16 -14 24 11 11 23 6 23 -9z m-4886 -46 c5 -4 17 -4 28 2 15 8
20 5 28 -16 16 -41 13 -45 -34 -45 -36 0 -48 5 -65 26 -24 31 -18 57 13 48 11
-3 25 -10 30 -15z m-50 -60 c17 -20 25 -41 25 -62 -2 -30 -2 -30 -6 -5 -3 20
-15 32 -48 48 -24 12 -49 28 -55 36 -11 12 -7 14 23 14 27 0 41 -7 61 -31z
m4803 3 c-24 -26 -47 -87 -47 -122 0 -28 -3 -30 -35 -30 -33 0 -35 2 -35 35 0
62 41 119 96 134 36 10 42 6 21 -17z m310 -8 c31 -24 53 -73 53 -121 0 -20 -5
-23 -40 -23 l-40 0 0 40 c0 43 -18 88 -44 109 -44 37 21 32 71 -5z m3557 -113
c20 -40 35 -75 33 -77 -6 -6 -117 163 -117 178 0 6 8 20 18 31 17 19 17 18 23
-19 3 -22 22 -72 43 -113z m-3754 54 l0 -85 -65 0 -65 0 0 35 c0 65 55 135
106 135 23 0 24 -2 24 -85z m86 66 c35 -22 64 -75 64 -120 l0 -31 -65 0 -65 0
0 85 c0 95 7 102 66 66z m-5041 -38 l35 -17 0 -73 c0 -71 1 -73 25 -73 22 0
25 3 19 25 -4 17 -2 25 6 25 9 0 9 4 2 13 -5 6 -8 36 -5 65 l6 52 38 0 c50 0
61 -27 24 -64 -33 -33 -35 -99 -3 -133 l21 -23 -107 0 -107 0 20 26 c28 36 27
85 -3 122 -17 19 -23 36 -19 50 6 26 4 26 48 5z m8668 -92 c30 -46 53 -90 50
-97 -4 -10 -26 -14 -84 -14 -43 0 -79 3 -79 8 0 18 32 187 37 195 7 11 10 7
76 -92z m-8757 39 c-3 -11 -9 -29 -12 -40 -4 -12 -2 -20 5 -20 6 0 11 6 11 13
0 7 7 22 15 33 15 19 15 19 30 0 37 -49 1 -126 -59 -126 -84 1 -111 109 -36
147 37 19 53 16 46 -7z m343 5 c89 -45 20 -175 -74 -139 -23 9 -46 60 -39 88
3 14 14 32 24 41 17 15 19 14 30 -19 6 -20 16 -36 22 -36 6 0 7 7 4 16 -25 65
-18 76 33 49z m5411 -80 l0 -75 -135 0 -135 0 0 68 c0 38 3 72 7 75 3 4 64 7
135 7 l128 0 0 -75z m380 -5 l0 -70 -175 0 -175 0 0 73 0 72 175 -3 175 -3 0
-69z m993 70 l587 0 0 -70 0 -70 -780 0 -780 0 0 68 c0 38 3 72 8 77 4 4 90 5
192 1 102 -3 449 -6 773 -6z m-3791 -27 c2 -20 9 -29 26 -31 12 -2 22 -10 22
-18 0 -11 -15 -14 -65 -14 l-65 0 0 45 0 45 39 0 c36 0 40 -3 43 -27z m338 12
c0 -13 -24 -15 -155 -15 -131 0 -155 2 -155 15 0 13 24 15 155 15 131 0 155
-2 155 -15z m6200 -80 l0 -45 -395 0 -395 0 0 38 c0 21 3 42 7 45 3 4 181 7
395 7 l388 0 0 -45z m440 0 l0 -45 -210 0 -210 0 0 38 c0 21 3 42 7 45 3 4 98
7 210 7 l203 0 0 -45z m790 0 l0 -45 -380 0 -380 0 0 45 0 45 380 0 380 0 0
-45z m-7380 20 c0 -13 -24 -15 -155 -15 -131 0 -155 2 -155 15 0 13 24 15 155
15 131 0 155 -2 155 -15z m1380 -35 c0 -29 -2 -30 -45 -30 -43 0 -45 1 -45 30
0 29 2 30 45 30 43 0 45 -1 45 -30z m-2010 -15 c0 -13 -110 -15 -885 -15 -487
0 -885 4 -885 8 0 5 3 12 7 15 3 4 401 7 885 7 769 0 878 -2 878 -15z m940 -2
c0 -10 -87 -13 -455 -13 -364 0 -455 3 -455 13 0 10 91 13 455 13 368 0 455
-2 455 -13z"/>
<path d="M11268 3013 l-158 -96 0 -43 c0 -24 4 -44 10 -44 5 0 72 38 148 85
76 46 146 87 154 90 9 4 74 -30 163 -84 81 -50 151 -91 156 -91 5 0 9 20 9 44
l0 44 -148 91 c-81 49 -154 92 -162 95 -8 3 -84 -37 -172 -91z m310 -20 c134
-81 163 -105 149 -120 -3 -3 -69 33 -147 81 -77 47 -144 86 -149 86 -5 0 -71
-38 -147 -85 -77 -47 -142 -85 -146 -85 -5 0 -8 6 -8 14 0 11 281 195 300 196
2 0 69 -39 148 -87z"/>
<path d="M10560 2040 l0 -230 218 2 217 3 0 225 0 225 -217 3 -218 2 0 -230z
m410 0 l0 -210 -190 0 -190 0 0 210 0 210 190 0 190 0 0 -210z"/>
<path d="M11280 2040 l0 -230 150 0 150 0 0 230 0 230 -150 0 -150 0 0 -230z
m277 3 l-2 -208 -122 -3 -123 -3 0 211 0 210 125 0 125 0 -3 -207z"/>
<path d="M11858 2155 c-2 -63 -2 -167 0 -230 l3 -115 215 0 214 0 0 230 0 230
-214 0 -215 0 -3 -115z m402 -115 l0 -210 -190 0 -190 0 0 210 0 210 190 0
190 0 0 -210z"/>
<path d="M10567 1644 c-4 -4 -7 -110 -7 -236 l0 -228 218 2 217 3 0 230 0 230
-211 3 c-115 1 -213 -1 -217 -4z m401 -231 l-3 -208 -187 -3 -188 -2 0 210 0
210 190 0 190 0 -2 -207z"/>
<path d="M11287 1644 c-4 -4 -7 -110 -7 -236 l0 -228 150 0 150 0 -2 233 -3
232 -141 3 c-77 1 -143 -1 -147 -4z m270 -231 l-2 -208 -122 -3 -123 -3 0 211
0 210 125 0 125 0 -3 -207z"/>
<path d="M11858 1532 c-2 -66 -2 -172 0 -236 l3 -116 215 0 214 0 -2 233 -3
232 -212 3 -212 2 -3 -118z m402 -122 l0 -210 -187 2 -188 3 -3 208 -2 207
190 0 190 0 0 -210z"/>
<path d="M10562 483 l3 -208 215 0 215 0 0 205 0 205 -218 3 -217 2 2 -207z
m408 -3 l0 -180 -190 0 -190 0 0 180 0 180 190 0 190 0 0 -180z"/>
<path d="M11860 480 l0 -210 215 0 215 0 0 210 0 210 -215 0 -215 0 0 -210z
m400 0 l0 -180 -190 0 -190 0 0 180 0 180 190 0 190 0 0 -180z"/>
<path d="M7167 594 c-4 -4 -7 -90 -7 -191 0 -143 3 -184 13 -181 9 4 13 50 15
176 l2 172 85 0 85 0 2 -172 c2 -128 6 -172 16 -176 10 -3 12 36 10 185 l-3
188 -106 3 c-58 1 -108 -1 -112 -4z"/>
<path d="M4607 544 c-4 -4 -7 -81 -7 -171 0 -127 3 -164 13 -161 9 4 13 46 15
156 l3 152 100 0 c76 0 100 3 97 13 -5 13 -208 23 -221 11z"/>
<path d="M7720 2598 l0 -83 134 -77 c73 -43 136 -78 139 -78 4 0 7 6 7 13 -1
6 -51 41 -113 76 -147 85 -147 84 -147 143 0 26 3 48 7 48 4 0 306 -179 670
-397 l663 -398 0 -48 0 -49 -32 20 c-18 10 -72 42 -119 71 -84 49 -142 69
-109 37 25 -24 273 -165 282 -160 4 3 8 36 8 73 l0 67 -684 412 c-377 227
-689 412 -695 412 -7 0 -11 -31 -11 -82z"/>
<path d="M8030 2347 c0 -7 9 -18 20 -24 26 -17 38 3 14 22 -24 18 -34 19 -34
2z"/>
<path d="M8104 2308 c-7 -10 21 -38 38 -38 16 0 8 25 -12 37 -14 9 -21 10 -26
1z"/>
<path d="M8175 2261 c-7 -13 32 -34 47 -25 7 5 5 11 -7 21 -22 15 -32 16 -40
4z"/>
<path d="M8250 2216 c0 -16 37 -32 48 -21 7 7 -25 35 -40 35 -4 0 -8 -6 -8
-14z"/>
<path d="M8325 2179 c-6 -9 21 -38 37 -39 19 -1 15 20 -7 34 -16 10 -26 12
-30 5z"/>
<path d="M7876 2143 c-3 -3 -6 -217 -6 -475 0 -408 2 -468 15 -468 13 0 15 60
17 454 l3 455 135 -79 135 -78 3 -376 c1 -239 6 -376 12 -376 6 0 10 138 10
384 l0 384 -152 88 c-84 48 -156 89 -159 90 -3 2 -9 1 -13 -3z"/>
<path d="M8395 2130 c-7 -12 42 -36 53 -26 4 4 -2 14 -12 22 -23 17 -33 18
-41 4z"/>
<path d="M8476 2093 c-11 -12 -6 -20 19 -31 20 -9 25 -9 25 3 0 16 -34 38 -44
28z"/>
<path d="M8547 2047 c-6 -16 29 -41 44 -32 12 8 4 22 -21 35 -13 7 -19 6 -23
-3z"/>
<path d="M8622 1998 c6 -17 36 -34 45 -24 4 4 -1 14 -11 22 -24 17 -39 18 -34
2z"/>
<path d="M8696 1963 c-11 -11 -6 -20 18 -31 19 -8 25 -8 29 2 6 14 -36 39 -47
29z"/>
<path d="M7412 1645 c-149 -102 -274 -185 -277 -185 -3 0 -5 18 -5 40 0 59
-18 49 -22 -12 -3 -51 -4 -53 -58 -91 l-55 -38 -5 87 c-3 57 -9 89 -17 92 -10
3 -13 -22 -13 -100 l-1 -103 -147 -100 -147 -100 -3 -78 c-2 -64 0 -78 11 -75
29 6 1026 693 1027 707 0 7 -6 11 -12 8 -10 -4 -851 -575 -971 -659 l-28 -20
3 53 3 53 499 341 c275 187 501 346 504 353 2 7 -1 12 -6 12 -5 0 -131 -83
-280 -185z"/>
<path d="M3282 1761 c-26 -32 -40 -40 -70 -43 -37 -3 -50 -16 -316 -322 l-277
-319 27 -28 28 -29 806 0 806 0 35 38 c20 20 125 143 234 272 109 129 206 243
215 253 17 18 27 6 249 -272 226 -284 232 -291 267 -291 31 0 36 3 31 19 -2
10 -121 168 -263 350 l-259 331 -275 -3 c-177 -1 -274 -6 -273 -12 2 -6 103
-11 270 -13 l268 -3 235 -300 c271 -346 266 -339 251 -339 -6 0 -117 133 -246
295 -130 163 -239 294 -243 291 -4 -2 -117 -135 -252 -295 l-245 -290 -810 2
c-711 2 -810 4 -812 17 -3 17 511 613 533 618 21 5 17 -12 -7 -34 -12 -10 -39
-40 -61 -66 -38 -46 -39 -48 -22 -73 11 -17 25 -25 45 -25 l28 0 3 -107 3
-108 166 -3 165 -2 90 104 89 104 3 -104 3 -104 167 0 167 0 94 110 c92 107
95 110 136 110 31 0 47 6 64 24 l23 25 -23 29 c-13 16 -62 75 -109 131 l-85
100 -152 1 -152 0 -32 -40 c-29 -35 -37 -40 -75 -40 -38 0 -47 5 -75 40 l-32
40 -152 0 -152 0 -31 -39z m359 -33 c66 -77 66 -73 14 -130 -32 -35 -44 -56
-40 -69 6 -17 1 -19 -42 -19 -48 -1 -48 -1 -140 97 l-91 98 -59 -64 c-32 -36
-69 -79 -83 -97 -27 -36 -51 -42 -69 -20 -9 11 9 38 96 135 l107 121 131 0
131 0 45 -52z m576 -67 c127 -148 127 -149 -54 -150 l-121 -1 -50 52 c-27 29
-66 72 -87 96 -20 23 -41 42 -45 42 -4 0 -43 -41 -86 -90 -65 -75 -83 -90
-104 -88 -14 2 -25 8 -25 14 0 6 32 46 70 89 39 44 85 96 104 117 l33 38 132
0 131 0 102 -119z m-790 -89 l73 -82 0 -95 0 -95 -145 0 -145 0 0 109 0 110
62 70 c35 39 67 70 73 68 5 -2 43 -40 82 -85z m517 3 l76 -86 0 -94 0 -95
-145 0 -145 0 0 111 0 110 62 70 c34 38 65 69 69 69 4 0 41 -38 83 -85z m-284
-91 c0 -6 -75 -96 -127 -154 -11 -12 -13 0 -13 73 l0 87 70 0 c39 0 70 -3 70
-6z m520 0 c0 -4 -28 -38 -62 -78 -34 -39 -66 -75 -70 -80 -4 -6 -8 29 -8 77
l0 87 70 0 c39 0 70 -3 70 -6z"/>
<path d="M8260 1485 c0 -183 4 -285 10 -285 6 0 10 97 10 270 l0 270 290 0
290 0 0 -270 c0 -173 4 -270 10 -270 6 0 10 102 10 285 l0 285 -310 0 -310 0
0 -285z"/>
<path d="M8560 1455 c0 -163 4 -255 10 -255 6 0 10 92 10 255 0 163 -4 255
-10 255 -6 0 -10 -92 -10 -255z"/>
<path d="M4738 1284 c-60 -32 -78 -129 -33 -183 34 -40 84 -56 130 -41 133 44
102 241 -37 240 -18 -1 -45 -7 -60 -16z m129 -35 c63 -60 19 -169 -67 -169
-60 0 -108 60 -95 118 6 29 36 64 65 75 25 10 73 -2 97 -24z"/>
<path d="M2980 916 c0 -33 -2 -36 -30 -36 -16 0 -30 -4 -30 -10 0 -6 32 -10
75 -10 43 0 75 4 75 10 0 6 -13 10 -29 10 -26 0 -30 4 -33 32 -4 46 -28 49
-28 4z"/>
<path d="M4620 829 c-47 -56 -96 -115 -109 -131 l-23 -29 23 -25 c22 -23 28
-24 148 -24 l126 0 85 106 85 105 60 -68 c139 -157 131 -150 154 -129 12 11
21 25 21 32 0 7 -50 69 -111 138 l-112 126 -131 0 -131 -1 -85 -100z m432 -35
c106 -119 117 -134 99 -134 -5 0 -49 45 -97 100 -48 55 -92 100 -99 100 -6 0
-51 -49 -100 -110 l-88 -110 -112 0 c-161 0 -161 1 -33 149 l103 121 112 0
112 0 103 -116z"/>
<path d="M2800 565 l0 -245 158 0 c383 -1 538 -1 700 -1 l172 1 -2 243 -3 242
-512 3 -513 2 0 -245z m998 -2 l-3 -218 -150 0 -150 0 -3 103 -3 102 140 0
c189 0 197 19 9 22 l-143 3 -3 93 c-2 68 -6 92 -15 89 -8 -3 -12 -32 -12 -93
l0 -89 -160 0 -160 0 -3 93 c-1 50 -7 92 -12 92 -5 0 -11 -42 -12 -92 l-3 -93
-100 -3 c-55 -2 -119 0 -142 3 l-43 6 0 100 0 99 485 0 485 0 -2 -217z m-680
-115 l-3 -103 -100 -3 c-55 -2 -119 0 -142 3 l-43 6 0 100 0 99 145 0 146 0
-3 -102z m347 -3 l0 -100 -160 0 -160 0 -3 103 -3 102 163 -2 163 -3 0 -100z"/>
<path d="M2402 388 c2 -118 6 -162 16 -166 9 -3 12 14 12 62 0 51 6 78 25 116
14 27 25 54 25 60 0 20 -19 10 -34 -17 -15 -27 -15 -26 -16 40 0 53 -3 67 -15
67 -13 0 -15 -22 -13 -162z"/>
<path d="M7840 450 l0 -40 530 0 530 0 0 40 0 40 -530 0 -530 0 0 -40z m1035
0 c0 -13 -64 -15 -507 -18 -420 -2 -508 0 -508 11 0 8 3 17 7 20 3 4 232 6
507 5 438 -3 501 -5 501 -18z"/>
<path d="M5048 378 c-3 -29 -7 -33 -35 -36 -65 -6 -31 -22 47 -22 47 0 80 4
80 10 0 6 -16 10 -35 10 -33 0 -35 2 -35 35 0 44 -18 46 -22 3z"/>
<path d="M9292 243 c-33 -16 -82 -70 -82 -91 0 -6 -14 -12 -32 -14 -50 -5 -47
-27 3 -23 35 2 44 7 54 32 36 85 142 111 210 52 19 -17 38 -42 41 -54 4 -15
18 -28 36 -34 17 -6 36 -19 44 -28 7 -10 16 -14 20 -10 13 12 -9 40 -44 57
-17 8 -32 19 -32 24 0 5 -12 25 -26 44 -46 59 -125 78 -192 45z"/>
<path d="M0 20 c0 -6 78 -10 215 -10 137 0 215 4 215 10 0 6 -78 10 -215 10
-137 0 -215 -4 -215 -10z"/>
</g>
</svg>
